<?xml version="1.0" encoding="UTF-8"?>
<svg id="Layer_1" data-name="Layer 1" xmlns="http://www.w3.org/2000/svg" viewBox="0 0 348.31 70.76">
  <path d="M2.08,55.28c-1.53,0-2.08-.93-2.08-1.79,0-.43.17-1.48,1.71-1.84l1.71-.3c1.16-.22,1.41-.48,1.42-.49,0,0,.2-.26.2-1.34V7.19c0-1.08-.2-1.34-.2-1.34,0,0-.26-.26-1.43-.49l-1.64-.29c-1.6-.37-1.76-1.42-1.76-1.85,0-.83.54-1.79,2.08-1.79h24.19c1.61,0,2.66.96,2.8,2.57l.58,11.99c.08.66-.07,1.25-.45,1.67-.24.27-.7.6-1.49.6-1.08,0-1.83-.67-2-1.78l-.43-2.66c-.49-3.02-1.48-5.24-2.93-6.59-1.43-1.33-3.48-2-6.09-2-2.22,0-3.08.4-3.4.63-.47.35-.71,1.06-.71,2.11v17.36h3.61c1.63,0,2.53-.8,2.91-2.59l.72-3.59c.42-1.59,1.53-1.76,1.99-1.76.12,0,.24,0,.36.03.41.07,1.64.44,1.64,2.21v16.2c0,1.78-1.23,2.14-1.61,2.21-.15.02-.27.03-.39.03-.46,0-1.57-.17-1.98-1.7l-.73-3.58c-.38-1.91-.84-2.55-1.09-2.76-.41-.36-1.05-.54-1.89-.54h-3.54v18.08c0,1.42.33,2.42.99,2.99.48.42,1.6.91,4.21.91,2.17,0,4.05-.55,5.57-1.65,1.48-1.07,2.55-3.17,3.17-6.26l.86-4.25c.25-1.1,1.02-1.74,2.06-1.74.75,0,1.18.32,1.42.58.38.42.52,1.01.44,1.76l-.71,12.76c-.15,1.66-1.16,2.6-2.8,2.6H2.08Z"/>
  <path d="M2.08,54.28c-.72,0-1.08-.26-1.08-.79,0-.43.31-.72.94-.86l1.66-.29c1.01-.19,1.67-.46,1.98-.79.31-.34.47-1.01.47-2.02V7.19c0-1.01-.16-1.68-.47-2.02-.31-.34-.97-.6-1.98-.79l-1.66-.29c-.62-.14-.94-.43-.94-.86,0-.53.36-.79,1.08-.79h24.19c1.1,0,1.7.55,1.8,1.66l.58,11.95c.1.82-.22,1.22-.94,1.22-.58,0-.91-.31-1.01-.94l-.43-2.66c-.53-3.26-1.61-5.65-3.24-7.16-1.63-1.51-3.89-2.27-6.77-2.27-1.92,0-3.25.28-4,.83-.75.55-1.12,1.52-1.12,2.92v17.35c0,.67.34,1.01,1.01,1.01h3.6c2.11,0,3.41-1.13,3.89-3.38l.72-3.6c.19-.72.6-1.03,1.22-.94.53.1.79.5.79,1.22v16.2c0,.72-.26,1.13-.79,1.22-.62.1-1.03-.22-1.22-.94l-.72-3.53c-.34-1.68-.8-2.78-1.4-3.31-.6-.53-1.45-.79-2.56-.79h-3.53c-.67,0-1.01.34-1.01,1.01v18.07c0,1.73.44,2.98,1.33,3.74.89.77,2.51,1.15,4.86,1.15s4.45-.61,6.16-1.84c1.7-1.22,2.89-3.52,3.56-6.88l.86-4.25c.14-.62.5-.94,1.08-.94.67,0,.96.41.86,1.22l-.72,12.82c-.1,1.1-.7,1.66-1.8,1.66H2.08Z"/>
  <path d="M52.33,55.28c-1.48,0-2.01-.97-2.01-1.79,0-.97.6-1.66,1.61-1.85l1.05-.15c1.06-.15,1.29-.43,1.31-.46.08-.12.28-.5.28-1.57v-22.61c0-2.06-.36-3.54-1.04-4.3-.67-.75-1.63-1.11-2.93-1.11s-2.49.37-3.55,1.14c-1.09.79-1.96,1.85-2.61,3.16-.65,1.32-.98,2.81-.98,4.42v19.3c0,1.07.19,1.46.28,1.57.08.11.43.3,1.26.38l1.96.22c1.08.19,1.68.86,1.68,1.79,0,.86-.54,1.86-2.08,1.86h-12.17c-1.53,0-2.08-.93-2.08-1.79,0-.43.17-1.48,1.71-1.84l.92-.16c1.08-.21,1.33-.49,1.35-.52.06-.08.26-.43.26-1.52v-24.19c0-.89-.16-1.12-.16-1.12-.01-.01-.16-.18-.78-.26l-1.51-.22c-1.31-.1-1.79-.98-1.79-1.78,0-.52.26-1.45,1.97-1.77,1.36-.22,2.38-.56,3.05-1,.75-.5,1.55-1.13,2.38-1.86.6-.6,1.17-.9,1.74-.9.76,0,1.65.49,1.65,1.86v2.78c1.95-1.83,3.64-3.06,5.17-3.76,1.59-.73,3.29-1.1,5.06-1.1,2.46,0,4.45.88,5.94,2.62,1.45,1.69,2.19,4.15,2.19,7.31v23.4c0,1.09.2,1.44.26,1.52.01.01.23.29,1.33.45l1.58.22c1.05.19,1.66.88,1.66,1.85,0,1.09-.73,1.79-1.86,1.79h-12.1Z"/>
  <path d="M34.41,54.28c-.72,0-1.08-.26-1.08-.79,0-.43.31-.72.94-.86l.86-.14c1.01-.19,1.67-.49,1.98-.9.31-.41.47-1.12.47-2.12v-24.19c0-.86-.13-1.45-.4-1.76-.26-.31-.73-.52-1.4-.61l-1.51-.22c-.62-.05-.94-.31-.94-.79,0-.38.38-.65,1.15-.79,1.49-.24,2.63-.62,3.42-1.15.79-.53,1.62-1.18,2.48-1.94.43-.43.79-.65,1.08-.65.43,0,.65.29.65.86v3.24c0,.43.16.71.47.83.31.12.66-.01,1.04-.4,1.92-1.82,3.61-3.07,5.08-3.74,1.46-.67,3.01-1.01,4.64-1.01,2.16,0,3.89.76,5.18,2.27,1.3,1.51,1.94,3.73,1.94,6.66v23.4c0,1.01.16,1.72.47,2.12.31.41.97.68,1.98.83l1.58.22c.53.1.79.38.79.86,0,.53-.29.79-.86.79h-12.1c-.67,0-1.01-.26-1.01-.79,0-.48.26-.77.79-.86l1.01-.14c1.01-.14,1.67-.43,1.98-.86.31-.43.47-1.15.47-2.16v-22.61c0-2.35-.43-4.01-1.3-4.97-.86-.96-2.09-1.44-3.67-1.44s-2.92.44-4.14,1.33c-1.22.89-2.2,2.06-2.92,3.53-.72,1.46-1.08,3.08-1.08,4.86v19.3c0,1.01.16,1.73.47,2.16.31.43.97.7,1.98.79l1.94.22c.53.1.79.36.79.79,0,.58-.36.86-1.08.86h-12.17Z"/>
  <path d="M78.9,70.76c-3.84,0-6.94-.8-9.21-2.37-2.39-1.66-3.6-3.71-3.6-6.11,0-.97.14-1.87.42-2.67.28-.82.85-1.72,1.74-2.74.82-.94,2.07-2.16,3.73-3.62.47-.43.52-.67.53-.72-.01,0-.08-.06-.25-.13-2.01-.84-3.25-1.99-3.67-3.41-.32-1.06-.31-2.64,1.54-4.18l4.91-4.23c-1.94-1.03-3.53-2.6-4.71-4.66-1.23-2.16-1.86-4.51-1.86-6.98s.53-4.54,1.56-6.45c1.04-1.92,2.46-3.47,4.22-4.61,1.79-1.16,3.81-1.74,6.02-1.74,1.24,0,2.44.21,3.58.61.49-1.99,1.4-3.57,2.7-4.72,1.36-1.19,2.76-1.8,4.15-1.8s2.5.42,3.38,1.24c.9.84,1.36,1.9,1.36,3.14,0,1.09-.34,1.98-1.01,2.65-.67.67-1.52,1.01-2.51,1.01-.87,0-1.53-.19-2.01-.59-.31-.26-.6-.52-.86-.78h0s-.11-.07-.44-.07c-.58,0-.97.18-1.19,1.1-.08.28-.09.46-.04.55.12.24.31.49.57.75,1.24,1.19,2.22,2.66,2.92,4.36.69,1.7,1.05,3.59,1.05,5.63,0,2.45-.51,4.69-1.51,6.65-1.01,1.97-2.41,3.55-4.16,4.7-1.77,1.16-3.78,1.75-5.98,1.75-.68,0-1.27.14-1.73.41-.54.31-1.09.77-1.64,1.36l-1.21,1.35c-.54.67-.4,1.04-.35,1.17.04.11.15.4,1.05.4h6.19c3.68,0,6.66.94,8.85,2.79,2.24,1.9,3.38,4.51,3.38,7.78,0,2.56-.74,4.86-2.21,6.86-1.44,1.95-3.37,3.51-5.74,4.63-2.36,1.11-5.03,1.68-7.95,1.68ZM80.27,53.41c-1.69,0-2.56.2-2.99.36-.6.23-1.19.66-1.75,1.26-1.74,1.85-2.38,2.93-2.61,3.5-.33.83-.5,1.7-.5,2.58,0,1.83.61,3.26,1.86,4.36,1.27,1.12,3.12,1.69,5.49,1.69,1.55,0,2.99-.35,4.28-1.03,1.29-.69,2.29-1.62,3.04-2.84.74-1.2,1.11-2.59,1.11-4.12,0-1.89-.52-3.28-1.59-4.27-1.08-.99-2.65-1.5-4.69-1.5h-1.66ZM80.2,19.71c-1.3,0-2.34.76-3.19,2.32-.95,1.74-1.43,4.11-1.43,7.05s.47,5.44,1.39,7.16c.83,1.54,1.88,2.28,3.22,2.28s2.4-.75,3.22-2.28c.92-1.72,1.39-4.12,1.39-7.16s-.48-5.31-1.43-7.05c-.85-1.56-1.89-2.32-3.19-2.32Z"/>
  <path d="M78.9,69.76c-3.65,0-6.53-.73-8.64-2.2-2.11-1.46-3.17-3.23-3.17-5.29,0-.86.12-1.65.36-2.34.24-.7.76-1.5,1.55-2.41.79-.91,2-2.09,3.64-3.53.58-.53.86-1.02.86-1.48s-.29-.8-.86-1.04c-1.73-.72-2.76-1.64-3.1-2.77-.34-1.13.07-2.17,1.22-3.13l5.18-4.46c.58-.48.55-.89-.07-1.22-1.97-.96-3.53-2.45-4.68-4.46-1.15-2.02-1.73-4.18-1.73-6.48s.48-4.2,1.44-5.98c.96-1.78,2.26-3.19,3.89-4.25,1.63-1.06,3.46-1.58,5.47-1.58,1.15,0,2.26.19,3.31.58.67.24,1.08.02,1.22-.65.43-1.82,1.23-3.25,2.41-4.28,1.18-1.03,2.34-1.55,3.49-1.55s2,.32,2.7.97c.69.65,1.04,1.45,1.04,2.41,0,.82-.24,1.46-.72,1.94-.48.48-1.08.72-1.8.72-.62,0-1.08-.12-1.37-.36-.29-.24-.55-.48-.79-.72-.24-.24-.62-.36-1.15-.36-1.15,0-1.87.62-2.16,1.87-.14.48-.13.89.04,1.22.17.34.42.67.76,1.01,1.15,1.1,2.05,2.45,2.7,4.03s.97,3.34.97,5.26c0,2.3-.47,4.37-1.4,6.19-.94,1.82-2.21,3.26-3.82,4.32-1.61,1.06-3.42,1.58-5.44,1.58-.86,0-1.61.18-2.23.54-.62.36-1.25.88-1.87,1.55l-1.22,1.37c-.62.77-.8,1.5-.54,2.2.26.7.92,1.04,1.98,1.04h6.19c3.46,0,6.19.85,8.21,2.56,2.02,1.7,3.02,4.04,3.02,7.02,0,2.35-.67,4.44-2.02,6.26-1.34,1.82-3.13,3.26-5.36,4.32-2.23,1.06-4.74,1.58-7.52,1.58ZM79.77,68.18c1.73,0,3.31-.38,4.75-1.15,1.44-.77,2.58-1.84,3.42-3.2.84-1.37,1.26-2.92,1.26-4.64,0-2.16-.64-3.83-1.91-5-1.27-1.18-3.06-1.76-5.36-1.76h-1.66c-1.49,0-2.6.14-3.35.43-.74.29-1.45.79-2.12,1.51-1.49,1.58-2.42,2.86-2.81,3.82-.38.96-.58,1.94-.58,2.95,0,2.11.73,3.82,2.2,5.11,1.46,1.3,3.52,1.94,6.16,1.94ZM80.2,39.52c1.73,0,3.1-.94,4.1-2.81,1.01-1.87,1.51-4.42,1.51-7.63s-.52-5.63-1.55-7.52c-1.03-1.9-2.39-2.84-4.07-2.84s-3.04.95-4.07,2.84c-1.03,1.9-1.55,4.4-1.55,7.52s.5,5.76,1.51,7.63c1.01,1.87,2.38,2.81,4.1,2.81Z"/>
  <path d="M96.47,55.28c-1.13,0-1.86-.7-1.86-1.79,0-.97.6-1.66,1.61-1.85l1.05-.15c.79-.11,1.38-.33,1.7-.62.32-.29.39-.93.39-1.42V8.2c0-.94-.18-1.17-.18-1.18-.04-.06-.24-.16-.69-.19l-1.71-.22c-1.06-.19-1.66-.88-1.66-1.86s.6-1.66,1.61-1.85c1.25-.27,2.36-.59,3.26-.95.9-.36,1.65-.72,2.22-1.08.95-.59,1.66-.87,2.25-.87.87,0,1.79.57,1.79,2.15v47.3c0,1.09.2,1.44.26,1.52.01.01.23.29,1.33.45l1.64.21c1.06.19,1.66.88,1.66,1.86,0,1.09-.73,1.79-1.86,1.79h-12.82Z"/>
  <path d="M96.47,54.28c-.58,0-.86-.26-.86-.79,0-.48.26-.77.79-.86l1.01-.14c1.01-.14,1.75-.43,2.23-.86.48-.43.72-1.15.72-2.16V8.2c0-.86-.13-1.46-.4-1.8-.26-.34-.73-.53-1.4-.58l-1.66-.22c-.53-.1-.79-.38-.79-.86s.26-.77.79-.86c1.34-.29,2.5-.62,3.46-1.01.96-.38,1.75-.77,2.38-1.15.77-.48,1.34-.72,1.73-.72.53,0,.79.38.79,1.15v47.3c0,1.01.16,1.72.47,2.12.31.41.97.68,1.98.83l1.66.22c.53.1.79.38.79.86,0,.53-.29.79-.86.79h-12.82Z"/>
  <path d="M113.03,55.28c-1.53,0-2.08-.93-2.08-1.79,0-.43.17-1.48,1.71-1.84l.92-.16c1.42-.23,1.69-.54,1.7-.55.06-.08.28-.42.28-1.49v-24.19c0-.89-.16-1.12-.16-1.12-.01-.01-.16-.18-.78-.26l-1.51-.22c-1.31-.1-1.79-.98-1.79-1.78,0-.52.26-1.45,1.97-1.77,1.39-.22,2.48-.57,3.28-1.03.85-.49,1.69-1.11,2.5-1.83.6-.6,1.17-.9,1.74-.9.76,0,1.65.49,1.65,1.86v31.25c0,1.09.18,1.49.26,1.61.11.17.46.3.94.35l1.8.22c1.07.19,1.67.86,1.67,1.78,0,.86-.54,1.86-2.08,1.86h-12.02ZM119.08,11.72c-1.29,0-2.39-.47-3.28-1.39-.88-.91-1.32-2.06-1.32-3.43s.45-2.52,1.34-3.41c.89-.89,1.99-1.34,3.26-1.34s2.37.45,3.24,1.35c.86.89,1.29,2.03,1.29,3.4s-.43,2.51-1.28,3.42c-.87.93-1.96,1.4-3.25,1.4Z"/>
  <path d="M113.03,54.28c-.72,0-1.08-.26-1.08-.79,0-.43.31-.72.94-.86l.86-.14c1.2-.19,1.97-.49,2.3-.9.33-.41.5-1.12.5-2.12v-24.19c0-.86-.13-1.45-.4-1.76-.26-.31-.73-.52-1.4-.61l-1.51-.22c-.62-.05-.94-.31-.94-.79,0-.38.38-.65,1.15-.79,1.49-.24,2.69-.62,3.6-1.15.91-.53,1.8-1.18,2.66-1.94.43-.43.79-.65,1.08-.65.43,0,.65.29.65.86v31.25c0,1.01.14,1.73.43,2.16s.84.7,1.66.79l1.8.22c.53.1.79.36.79.79,0,.58-.36.86-1.08.86h-12.02ZM119.08,10.72c-1.01,0-1.86-.36-2.56-1.08-.7-.72-1.04-1.63-1.04-2.74s.35-2,1.04-2.7c.7-.7,1.55-1.04,2.56-1.04s1.85.35,2.52,1.04c.67.7,1.01,1.6,1.01,2.7s-.34,2.02-1.01,2.74c-.67.72-1.51,1.08-2.52,1.08Z"/>
  <path d="M136.36,55.93c-1.16,0-2.42-.14-3.73-.42-1.33-.28-2.42-.63-3.27-1.06-.79-.44-1.2-1.18-1.2-2.12l-.22-8.04c0-1.67,1-2.25,1.94-2.25.47,0,1.62.19,2.05,1.91.77,3.23,1.7,5.43,2.75,6.54.99,1.05,2.15,1.56,3.56,1.56,1.09,0,1.97-.41,2.69-1.27.75-.89,1.13-2.19,1.13-3.85s-.46-3.21-1.4-4.53c-.99-1.39-2.7-2.96-5.09-4.66-2.57-1.73-4.5-3.53-5.72-5.33-1.26-1.86-1.9-3.93-1.9-6.14,0-3.02,1.08-5.51,3.22-7.38,2.1-1.84,4.89-2.77,8.29-2.77,1.03,0,2.06.12,3.04.35,1.02.24,1.96.64,2.77,1.18.71.47,1.09,1.18,1.09,1.98l.14,7.9c0,1.55-1,2.1-1.86,2.1-.9,0-1.36-.48-1.55-.77-.2-.3-.37-.68-.49-1.11-.91-2.97-1.83-5.05-2.71-6.17-.77-.98-1.66-1.45-2.74-1.45-.97,0-1.74.32-2.37.98-.64.68-.95,1.51-.95,2.55,0,1.46.42,2.69,1.29,3.76.94,1.17,2.71,2.65,5.26,4.41,2.51,1.81,4.43,3.78,5.72,5.88,1.32,2.14,1.98,4.51,1.98,7.04,0,3.35-1.1,6.07-3.27,8.11-2.15,2.02-5,3.04-8.46,3.04Z"/>
  <path d="M136.36,54.93c-1.1,0-2.28-.13-3.53-.4-1.25-.26-2.26-.59-3.02-.97-.43-.24-.65-.65-.65-1.22l-.22-8.06c0-.82.31-1.22.94-1.22.53,0,.89.38,1.08,1.15.82,3.41,1.81,5.74,2.99,6.98,1.18,1.25,2.6,1.87,4.28,1.87,1.39,0,2.54-.54,3.46-1.62.91-1.08,1.37-2.58,1.37-4.5s-.53-3.62-1.58-5.11c-1.06-1.49-2.83-3.12-5.33-4.9-2.5-1.68-4.32-3.37-5.47-5.08-1.15-1.7-1.73-3.56-1.73-5.58,0-2.74.96-4.94,2.88-6.62,1.92-1.68,4.46-2.52,7.63-2.52.96,0,1.9.11,2.81.32.91.22,1.73.56,2.45,1.04.43.29.65.67.65,1.15l.14,7.92c0,.72-.29,1.08-.86,1.08-.34,0-.58-.11-.72-.32s-.26-.49-.36-.83c-.96-3.12-1.92-5.29-2.88-6.52-.96-1.22-2.14-1.84-3.53-1.84-1.25,0-2.28.43-3.1,1.3-.82.86-1.22,1.94-1.22,3.24,0,1.68.5,3.14,1.51,4.39,1.01,1.25,2.83,2.78,5.47,4.61,2.4,1.73,4.21,3.59,5.44,5.58,1.22,1.99,1.84,4.16,1.84,6.52,0,3.07-.98,5.53-2.95,7.38-1.97,1.85-4.56,2.77-7.78,2.77Z"/>
  <path d="M169.19,55.28c-1.48,0-2.01-.97-2.01-1.79,0-.97.6-1.66,1.61-1.85l1.05-.15c1.06-.15,1.29-.43,1.31-.46.08-.12.28-.5.28-1.57v-22.61c0-2.06-.36-3.54-1.04-4.3-.67-.75-1.63-1.11-2.93-1.11s-2.49.37-3.55,1.14c-1.09.79-1.96,1.85-2.61,3.16-.65,1.32-.98,2.81-.98,4.42v19.3c0,1.07.19,1.46.28,1.57.08.11.43.3,1.26.38l1.96.22c1.08.19,1.68.89,1.68,1.86,0,1.09-.73,1.79-1.86,1.79h-12.6c-1.13,0-1.86-.7-1.86-1.79,0-.97.6-1.66,1.61-1.85l1.05-.15c1.06-.15,1.29-.43,1.31-.46.08-.12.28-.5.28-1.57V8.2c0-.89-.16-1.12-.16-1.12-.01-.01-.16-.17-.78-.26l-1.51-.22c-1.05-.19-1.65-.88-1.65-1.85s.6-1.66,1.61-1.85c1.25-.27,2.33-.59,3.17-.95.86-.36,1.59-.73,2.17-1.08.95-.59,1.66-.87,2.25-.87.87,0,1.79.57,1.79,2.15v18.48c1.85-1.68,3.46-2.83,4.93-3.48,1.52-.68,3.13-1.02,4.8-1.02,2.55,0,4.6.88,6.09,2.62,1.45,1.69,2.19,4.15,2.19,7.31v23.4c0,1.09.2,1.44.26,1.52.01.01.23.29,1.33.45l1.58.22c1.05.19,1.66.88,1.66,1.85,0,1.09-.73,1.79-1.86,1.79h-12.1Z"/>
  <path d="M151.04,54.28c-.58,0-.86-.26-.86-.79,0-.48.26-.77.79-.86l1.01-.14c1.01-.14,1.67-.43,1.98-.86.31-.43.47-1.15.47-2.16V8.2c0-.86-.13-1.45-.4-1.76-.26-.31-.73-.52-1.4-.61l-1.51-.22c-.53-.1-.79-.38-.79-.86s.26-.77.79-.86c1.34-.29,2.47-.62,3.38-1.01.91-.38,1.68-.77,2.3-1.15.77-.48,1.34-.72,1.73-.72.53,0,.79.38.79,1.15v19.08c0,.43.14.68.43.76.29.07.65-.08,1.08-.47,1.82-1.68,3.43-2.83,4.82-3.46,1.39-.62,2.85-.94,4.39-.94,2.26,0,4.03.76,5.33,2.27,1.3,1.51,1.94,3.73,1.94,6.66v23.4c0,1.01.16,1.72.47,2.12.31.41.97.68,1.98.83l1.58.22c.53.1.79.38.79.86,0,.53-.29.79-.86.79h-12.1c-.67,0-1.01-.26-1.01-.79,0-.48.26-.77.79-.86l1.01-.14c1.01-.14,1.67-.43,1.98-.86.31-.43.47-1.15.47-2.16v-22.61c0-2.35-.43-4.01-1.3-4.97-.86-.96-2.09-1.44-3.67-1.44s-2.92.44-4.14,1.33c-1.22.89-2.2,2.06-2.92,3.53-.72,1.46-1.08,3.08-1.08,4.86v19.3c0,1.01.16,1.73.47,2.16.31.43.97.7,1.98.79l1.94.22c.53.1.79.38.79.86,0,.53-.29.79-.86.79h-12.6Z"/>
  <path d="M196.19,70.76c-1.72,0-3.16-.48-4.28-1.42-1.17-.99-1.76-2.3-1.76-3.9,0-1.21.36-2.23,1.08-3.04.74-.83,1.73-1.27,2.87-1.27,1.44,0,2.18.62,2.55,1.15.39.55.71,1.19.95,1.9.19.56.42,1.05.67,1.47.07.12.17.23.51.23.22,0,.72,0,1.18-1,.42-.92.63-2.28.63-4.05V7.19c0-1.08-.2-1.34-.2-1.34,0,0-.26-.26-1.43-.49l-1.64-.29c-1.6-.37-1.76-1.42-1.76-1.85,0-.83.54-1.79,2.08-1.79h13.03c1.54,0,2.08.97,2.08,1.79,0,.43-.17,1.48-1.71,1.84l-1.71.3c-1.16.22-1.41.48-1.42.49,0,0-.2.26-.2,1.33v43.92c0,5.91-.99,10.66-2.94,14.13-2.05,3.66-4.94,5.51-8.58,5.51Z"/>
  <path d="M196.19,69.76c-1.49,0-2.7-.4-3.64-1.19s-1.4-1.84-1.4-3.13c0-.96.28-1.75.83-2.38.55-.62,1.26-.94,2.12-.94.82,0,1.39.24,1.73.72.34.48.61,1.03.83,1.66.22.62.47,1.18.76,1.66.29.48.74.72,1.37.72.91,0,1.61-.53,2.09-1.58.48-1.06.72-2.54.72-4.46V7.19c0-1.01-.16-1.68-.47-2.02-.31-.34-.97-.6-1.98-.79l-1.66-.29c-.62-.14-.94-.43-.94-.86,0-.53.36-.79,1.08-.79h13.03c.72,0,1.08.26,1.08.79,0,.43-.31.72-.94.86l-1.66.29c-1.01.19-1.67.46-1.98.79-.31.34-.47,1.01-.47,2.02v43.92c0,5.76-.94,10.31-2.81,13.64-1.87,3.34-4.44,5-7.7,5Z"/>
  <path d="M234.2,55.93c-1.47,0-2.69-.63-3.55-1.82-.68-.95-1.17-2.07-1.46-3.34-1.21,1.64-2.45,2.9-3.72,3.77-1.36.93-3.06,1.4-5.03,1.4-2.28,0-4.18-.74-5.67-2.19-1.49-1.46-2.24-3.41-2.24-5.79s.71-4.43,2.12-6.44c1.36-1.94,3.25-3.71,5.6-5.26,2.32-1.53,5-2.78,7.95-3.72.24-.07.24-.12.24-.27v-6.55c0-2.59-.48-3.79-.89-4.34-.53-.73-1.21-1.07-2.15-1.07s-1.74.42-2.54,1.29c-.85.93-1.48,2.59-1.88,4.93-.27,1.76-.91,3.08-1.87,3.93-.98.86-2.01,1.29-3.07,1.29-1.89,0-3.02-1.13-3.02-3.02,0-1.56.44-3.12,1.32-4.64.84-1.46,1.97-2.8,3.34-4,1.37-1.19,2.88-2.15,4.5-2.86,1.66-.72,3.34-1.09,5.01-1.09,3.71,0,8.13,1.61,8.13,9.28v22.03c0,1.19.21,2.02.51,2.02.24,0,.56-.29.88-.79.29-.46.64-1.49.64-3.75,0-1.59,1-2.15,1.94-2.15s1.86.58,1.86,2.22c0,3.77-.67,6.46-2.05,8.21-1.42,1.81-3.08,2.72-4.93,2.72ZM228.29,36.57c-2.77,1-4.92,2.37-6.41,4.08-1.46,1.67-2.17,3.64-2.17,6,0,3.97,1.87,3.97,2.67,3.97,1.01,0,1.93-.36,2.81-1.1.94-.79,1.72-1.87,2.32-3.21.61-1.35.92-2.91.92-4.63v-5.17s-.1.03-.16.05Z"/>
  <path d="M220.45,54.93c-2.02,0-3.67-.64-4.97-1.91-1.3-1.27-1.94-2.96-1.94-5.08s.65-4.02,1.94-5.87c1.3-1.85,3.07-3.52,5.33-5,2.26-1.49,4.82-2.69,7.7-3.6.62-.19.94-.6.94-1.22v-6.55c0-2.3-.36-3.95-1.08-4.93-.72-.98-1.7-1.48-2.95-1.48s-2.29.54-3.28,1.62c-.98,1.08-1.69,2.89-2.12,5.44-.24,1.54-.76,2.65-1.55,3.35-.79.7-1.6,1.04-2.41,1.04-1.34,0-2.02-.67-2.02-2.02s.4-2.77,1.19-4.14c.79-1.37,1.84-2.62,3.13-3.74,1.3-1.13,2.71-2.03,4.25-2.7,1.54-.67,3.07-1.01,4.61-1.01,4.75,0,7.13,2.76,7.13,8.28v22.03c0,2.02.5,3.02,1.51,3.02.62,0,1.2-.42,1.73-1.26.53-.84.79-2.27.79-4.28,0-.77.31-1.15.94-1.15.58,0,.86.41.86,1.22,0,3.5-.61,6.04-1.84,7.6-1.22,1.56-2.6,2.34-4.14,2.34-1.15,0-2.06-.47-2.74-1.4-.67-.94-1.13-2.05-1.37-3.35-.05-.48-.25-.73-.61-.76-.36-.02-.71.2-1.04.68-1.15,1.58-2.33,2.78-3.53,3.6-1.2.82-2.69,1.22-4.46,1.22ZM222.39,51.62c1.25,0,2.4-.44,3.46-1.33,1.06-.89,1.92-2.08,2.59-3.56.67-1.49,1.01-3.17,1.01-5.04v-5.26c0-.91-.5-1.18-1.51-.79-2.93,1.06-5.2,2.51-6.8,4.36-1.61,1.85-2.41,4.07-2.41,6.66,0,3.31,1.22,4.97,3.67,4.97Z"/>
  <path d="M260.63,55.28c-1.48,0-2.01-.97-2.01-1.79,0-.97.6-1.66,1.61-1.85l1.05-.15c1.06-.15,1.29-.43,1.31-.46.08-.12.28-.5.28-1.57v-22.61c0-2.06-.36-3.54-1.04-4.3-.67-.75-1.63-1.11-2.93-1.11s-2.49.37-3.55,1.14c-1.09.79-1.96,1.85-2.61,3.16-.65,1.32-.98,2.81-.98,4.42v19.3c0,1.07.19,1.46.28,1.57.08.11.43.3,1.26.38l1.96.22c1.08.19,1.68.86,1.68,1.79,0,.86-.54,1.86-2.08,1.86h-12.17c-1.53,0-2.08-.93-2.08-1.79,0-.43.17-1.48,1.71-1.84l.92-.16c1.08-.21,1.33-.49,1.35-.52.06-.08.26-.43.26-1.52v-24.19c0-.89-.16-1.12-.16-1.12-.01-.01-.16-.18-.78-.26l-1.51-.22c-1.31-.1-1.79-.98-1.79-1.78,0-.52.26-1.45,1.97-1.77,1.36-.22,2.38-.56,3.05-1,.75-.5,1.55-1.13,2.38-1.86.6-.6,1.17-.9,1.74-.9.76,0,1.65.49,1.65,1.86v2.78c1.95-1.83,3.64-3.06,5.17-3.76,1.59-.73,3.29-1.1,5.06-1.1,2.46,0,4.45.88,5.94,2.62,1.45,1.69,2.19,4.15,2.19,7.31v23.4c0,1.09.2,1.44.26,1.52.01.01.23.29,1.33.45l1.58.22c1.05.19,1.66.88,1.66,1.85,0,1.09-.73,1.79-1.86,1.79h-12.1Z"/>
  <path d="M242.7,54.28c-.72,0-1.08-.26-1.08-.79,0-.43.31-.72.94-.86l.86-.14c1.01-.19,1.67-.49,1.98-.9.31-.41.47-1.12.47-2.12v-24.19c0-.86-.13-1.45-.4-1.76-.26-.31-.73-.52-1.4-.61l-1.51-.22c-.62-.05-.94-.31-.94-.79,0-.38.38-.65,1.15-.79,1.49-.24,2.63-.62,3.42-1.15.79-.53,1.62-1.18,2.48-1.94.43-.43.79-.65,1.08-.65.43,0,.65.29.65.86v3.24c0,.43.16.71.47.83.31.12.66-.01,1.04-.4,1.92-1.82,3.61-3.07,5.08-3.74,1.46-.67,3.01-1.01,4.64-1.01,2.16,0,3.89.76,5.18,2.27,1.3,1.51,1.94,3.73,1.94,6.66v23.4c0,1.01.16,1.72.47,2.12.31.41.97.68,1.98.83l1.58.22c.53.1.79.38.79.86,0,.53-.29.79-.86.79h-12.1c-.67,0-1.01-.26-1.01-.79,0-.48.26-.77.79-.86l1.01-.14c1.01-.14,1.67-.43,1.98-.86.31-.43.47-1.15.47-2.16v-22.61c0-2.35-.43-4.01-1.3-4.97-.86-.96-2.09-1.44-3.67-1.44s-2.92.44-4.14,1.33c-1.22.89-2.2,2.06-2.92,3.53-.72,1.46-1.08,3.08-1.08,4.86v19.3c0,1.01.16,1.73.47,2.16.31.43.97.7,1.98.79l1.94.22c.53.1.79.36.79.79,0,.58-.36.86-1.08.86h-12.17Z"/>
  <path d="M296.77,55.93c-1.47,0-2.69-.63-3.55-1.82-.68-.95-1.17-2.07-1.46-3.34-1.21,1.64-2.45,2.9-3.72,3.77-1.36.93-3.06,1.4-5.03,1.4-2.28,0-4.18-.74-5.67-2.19-1.49-1.46-2.24-3.41-2.24-5.79s.71-4.43,2.12-6.44c1.36-1.94,3.25-3.71,5.6-5.26,2.32-1.53,5-2.78,7.95-3.72.24-.07.24-.12.24-.27v-6.55c0-2.59-.48-3.79-.89-4.34-.53-.73-1.21-1.07-2.15-1.07s-1.74.42-2.54,1.29c-.85.93-1.48,2.59-1.88,4.93-.27,1.76-.91,3.08-1.87,3.93-.98.86-2.01,1.29-3.07,1.29-1.89,0-3.02-1.13-3.02-3.02,0-1.56.44-3.12,1.32-4.64.84-1.46,1.97-2.8,3.34-4,1.37-1.19,2.88-2.15,4.5-2.86,1.66-.72,3.34-1.09,5.01-1.09,3.71,0,8.13,1.61,8.13,9.28v22.03c0,1.19.21,2.02.51,2.02.24,0,.56-.29.88-.79.29-.46.64-1.49.64-3.75,0-1.59,1-2.15,1.94-2.15s1.86.58,1.86,2.22c0,3.77-.67,6.46-2.05,8.21-1.42,1.81-3.08,2.72-4.93,2.72ZM290.86,36.57c-2.77,1-4.92,2.37-6.41,4.08-1.46,1.67-2.17,3.64-2.17,6,0,3.97,1.87,3.97,2.67,3.97,1.01,0,1.93-.36,2.81-1.1.94-.79,1.72-1.87,2.32-3.21.61-1.35.92-2.91.92-4.63v-5.17s-.1.03-.16.05Z"/>
  <path d="M283.02,54.93c-2.02,0-3.67-.64-4.97-1.91-1.3-1.27-1.94-2.96-1.94-5.08s.65-4.02,1.94-5.87c1.3-1.85,3.07-3.52,5.33-5,2.26-1.49,4.82-2.69,7.7-3.6.62-.19.94-.6.94-1.22v-6.55c0-2.3-.36-3.95-1.08-4.93-.72-.98-1.7-1.48-2.95-1.48s-2.29.54-3.28,1.62c-.98,1.08-1.69,2.89-2.12,5.44-.24,1.54-.76,2.65-1.55,3.35-.79.7-1.6,1.04-2.41,1.04-1.34,0-2.02-.67-2.02-2.02s.4-2.77,1.19-4.14c.79-1.37,1.84-2.62,3.13-3.74,1.3-1.13,2.71-2.03,4.25-2.7,1.54-.67,3.07-1.01,4.61-1.01,4.75,0,7.13,2.76,7.13,8.28v22.03c0,2.02.5,3.02,1.51,3.02.62,0,1.2-.42,1.73-1.26.53-.84.79-2.27.79-4.28,0-.77.31-1.15.94-1.15.58,0,.86.41.86,1.22,0,3.5-.61,6.04-1.84,7.6-1.22,1.56-2.6,2.34-4.14,2.34-1.15,0-2.06-.47-2.74-1.4-.67-.94-1.13-2.05-1.37-3.35-.05-.48-.25-.73-.61-.76-.36-.02-.71.2-1.04.68-1.15,1.58-2.33,2.78-3.53,3.6-1.2.82-2.69,1.22-4.46,1.22ZM284.96,51.62c1.25,0,2.4-.44,3.46-1.33,1.06-.89,1.92-2.08,2.59-3.56.67-1.49,1.01-3.17,1.01-5.04v-5.26c0-.91-.5-1.18-1.51-.79-2.93,1.06-5.2,2.51-6.8,4.36-1.61,1.85-2.41,4.07-2.41,6.66,0,3.31,1.22,4.97,3.67,4.97Z"/>
  <path d="M304.54,55.28c-1.13,0-1.86-.7-1.86-1.79,0-.97.6-1.66,1.61-1.85l1.05-.15c.79-.11,1.38-.33,1.7-.62.32-.29.39-.93.39-1.42V8.2c0-.94-.18-1.17-.18-1.18-.04-.06-.24-.16-.69-.19l-1.71-.22c-1.06-.19-1.66-.88-1.66-1.86s.6-1.66,1.61-1.85c1.25-.27,2.36-.59,3.26-.95.9-.36,1.65-.72,2.22-1.08.95-.59,1.66-.87,2.25-.87.87,0,1.79.57,1.79,2.15v47.3c0,1.09.2,1.44.26,1.52.01.01.23.29,1.33.45l1.64.21c1.06.19,1.66.88,1.66,1.86,0,1.09-.73,1.79-1.86,1.79h-12.82Z"/>
  <path d="M304.54,54.28c-.58,0-.86-.26-.86-.79,0-.48.26-.77.79-.86l1.01-.14c1.01-.14,1.75-.43,2.23-.86.48-.43.72-1.15.72-2.16V8.2c0-.86-.13-1.46-.4-1.8-.26-.34-.73-.53-1.4-.58l-1.66-.22c-.53-.1-.79-.38-.79-.86s.26-.77.79-.86c1.34-.29,2.5-.62,3.46-1.01.96-.38,1.75-.77,2.38-1.15.77-.48,1.34-.72,1.73-.72.53,0,.79.38.79,1.15v47.3c0,1.01.16,1.72.47,2.12.31.41.97.68,1.98.83l1.66.22c.53.1.79.38.79.86,0,.53-.29.79-.86.79h-12.82Z"/>
  <path d="M341.33,55.93c-1.47,0-2.69-.63-3.55-1.82-.68-.95-1.17-2.07-1.46-3.34-1.21,1.64-2.45,2.9-3.72,3.77-1.36.93-3.06,1.4-5.03,1.4-2.28,0-4.18-.74-5.67-2.19-1.49-1.46-2.24-3.41-2.24-5.79s.71-4.43,2.12-6.44c1.36-1.94,3.25-3.71,5.6-5.26,2.32-1.53,5-2.78,7.95-3.72.24-.07.24-.12.24-.27v-6.55c0-2.59-.48-3.79-.89-4.34-.53-.73-1.21-1.07-2.15-1.07s-1.74.42-2.54,1.29c-.85.93-1.48,2.59-1.88,4.93-.27,1.76-.91,3.08-1.87,3.93-.98.86-2.01,1.29-3.07,1.29-1.89,0-3.02-1.13-3.02-3.02,0-1.56.44-3.12,1.32-4.64.84-1.46,1.97-2.8,3.34-4,1.37-1.19,2.88-2.15,4.5-2.86,1.66-.72,3.34-1.09,5.01-1.09,3.71,0,8.13,1.61,8.13,9.28v22.03c0,1.19.21,2.02.51,2.02.24,0,.56-.29.88-.79.29-.46.64-1.49.64-3.75,0-1.59,1-2.15,1.94-2.15s1.86.58,1.86,2.22c0,3.77-.67,6.46-2.05,8.21-1.42,1.81-3.08,2.72-4.93,2.72ZM335.43,36.57c-2.77,1-4.92,2.37-6.41,4.08-1.46,1.67-2.17,3.64-2.17,6,0,3.97,1.87,3.97,2.67,3.97,1.01,0,1.93-.36,2.81-1.1.94-.79,1.72-1.87,2.32-3.21.61-1.35.92-2.91.92-4.63v-5.17s-.1.03-.16.05Z"/>
  <path d="M327.58,54.93c-2.02,0-3.67-.64-4.97-1.91-1.3-1.27-1.94-2.96-1.94-5.08s.65-4.02,1.94-5.87c1.3-1.85,3.07-3.52,5.33-5,2.26-1.49,4.82-2.69,7.7-3.6.62-.19.94-.6.94-1.22v-6.55c0-2.3-.36-3.95-1.08-4.93-.72-.98-1.7-1.48-2.95-1.48s-2.29.54-3.28,1.62c-.98,1.08-1.69,2.89-2.12,5.44-.24,1.54-.76,2.65-1.55,3.35-.79.7-1.6,1.04-2.41,1.04-1.34,0-2.02-.67-2.02-2.02s.4-2.77,1.19-4.14c.79-1.37,1.84-2.62,3.13-3.74,1.3-1.13,2.71-2.03,4.25-2.7,1.54-.67,3.07-1.01,4.61-1.01,4.75,0,7.13,2.76,7.13,8.28v22.03c0,2.02.5,3.02,1.51,3.02.62,0,1.2-.42,1.73-1.26.53-.84.79-2.27.79-4.28,0-.77.31-1.15.94-1.15.58,0,.86.41.86,1.22,0,3.5-.61,6.04-1.84,7.6-1.22,1.56-2.6,2.34-4.14,2.34-1.15,0-2.06-.47-2.74-1.4-.67-.94-1.13-2.05-1.37-3.35-.05-.48-.25-.73-.61-.76-.36-.02-.71.2-1.04.68-1.15,1.58-2.33,2.78-3.53,3.6-1.2.82-2.69,1.22-4.46,1.22ZM329.53,51.62c1.25,0,2.4-.44,3.46-1.33,1.06-.89,1.92-2.08,2.59-3.56.67-1.49,1.01-3.17,1.01-5.04v-5.26c0-.91-.5-1.18-1.51-.79-2.93,1.06-5.2,2.51-6.8,4.36-1.61,1.85-2.41,4.07-2.41,6.66,0,3.31,1.22,4.97,3.67,4.97Z"/>
</svg>